<?xml version="1.0" encoding="utf-8"?>
<!-- Generator: Adobe Illustrator 16.0.0, SVG Export Plug-In . SVG Version: 6.00 Build 0)  -->
<!DOCTYPE svg PUBLIC "-//W3C//DTD SVG 1.1//EN" "http://www.w3.org/Graphics/SVG/1.1/DTD/svg11.dtd">
<svg version="1.1" id="Layer_1" xmlns="http://www.w3.org/2000/svg" xmlns:xlink="http://www.w3.org/1999/xlink" x="0px" y="0px"
	 width="100px" height="100px" viewBox="0 0 100 100" enable-background="new 0 0 100 100" xml:space="preserve">
<g>
	<path fill="#231F20" d="M56.298,67.486c0.018,0.157,0.036,0.313,0.06,0.466C56.334,67.796,56.315,67.644,56.298,67.486z"/>
	<g>
		<g>
			<path fill="#9E1F63" d="M17.841,95.369c1.1,0.026,2.176,0.009,2.935-0.458c0.009-0.004,0.011-0.013,0.019-0.022
				c0.085,0.175,0.2,0.276,0.347,0.29c3.949,0.402,6.635,0.009,9.225-0.009c1.971-0.014,3.962-1.286,1.325-1.959
				c-0.753-0.194-3.075-1.401-3.651-1.659c0.046-0.075,0.076-0.144,0.083-0.217c-0.071-0.186-0.211-0.259-0.413-0.231
				c0.93-1.106-1.224-0.757-0.539-1.632c0.196-0.248,0.73-0.862,0.244-1.134c-0.472-0.253,1.817-9.907,2.916-16.845
				c1.518-2.318,2.622-4.162,2.628-4.692c0.053-3.371-0.766-13.338-0.874-15.177c-0.124-2.13,0.53-4.485,0.292-6.61
				c-0.016-0.17,3.062-0.779,4.569-0.752c2.801,0.056,3.916,0.01,2.856-3.374c-0.689-2.185-7.461-3.605-7.627-3.706
				c-0.121-2.361-3.001-14.72-3.091-15.112c0.062-0.798,0.318-2.79,1.328-2.55c0.313,0.083,1.855,0.683,2.192,0.259
				c0.429-0.531-0.021-1.171,0.553-1.461c0.206-0.093,0.053-0.392,0.113-0.567c0.051-0.162,0.254-0.111,0.32-0.268
				c0.051-0.125-0.113-0.811,0.146-0.784c0.26,0.023,0.836,0.156,0.979-0.078c0.178-0.291-0.233-1.102-0.327-1.355
				c-0.131-0.36-0.426-0.761-0.312-1.19c0.113-0.406,0.404-0.646,0.376-1.102c-0.066-1.101-0.149-1.936-0.44-2.577
				c0.509-0.253,1.108-0.571,1.3-0.792c-0.544,0.055-0.85,0.083-1.959-0.305c0.102-0.046,0.519-0.046,0.494-0.226
				c-0.357-0.166-1.646-0.563-2.042-0.673c-0.505-0.138-0.991-0.392-1.33-0.452c-0.477-0.087-1.108-0.097-1.57,0.087
				c-0.431,0.171-0.919,0.678-1.385,0.729c-0.023-0.161-0.019-0.317,0.011-0.484c-0.103-0.06-0.504,0.25-0.564,0.309
				c-0.081,0.124-0.139,0.263-0.176,0.406c-0.208-0.014-0.442-0.134-0.627,0.041c0.376,0.25-0.129,0.351-0.325,0.457
				c-0.45,0.24-0.719,0.973-0.736,1.457c0.097-0.101,0.203-0.189,0.325-0.253c-0.113,0.493-0.412,0.973-0.402,1.484
				c0.013,0.54,0.041,1.171-0.042,1.692c0.035-0.07,0.312-0.221,0.355-0.286c-0.009,0.724,0.002,1.577,0.051,2.291
				c0.064-0.018,0.272-0.023,0.327-0.092c0.06,0.368,0.002,1.087-0.071,1.295c-0.059,0.157-0.21,0.438,0.009,0.488
				c-0.365,1.153-2.326,4.597-2.902,5.73c-0.096,0.189-0.202,0.41-0.304,0.65c-0.011,0.004-0.025,0.009-0.035,0.014
				c-1.609,2.425-1.708,4.564-1.586,5.703c0.313,2.946,3.508,13.304,1.187,17.112c-2.953,4.849-0.399,8.118,0.864,12.793
				c0.007,3.877-0.313,7.97-0.394,11.943c-2.245,3.355-4.995,5.915-6.473,8.773c-0.701,1.355-1.327,2.94-2.353,4.099
				c-0.565,0.641-1.731,1.373-2.044,2.148C10.807,88.536,16.055,95.322,17.841,95.369z M18.683,90.555
				c0.475-0.843-0.602-1.466,0.443-1.991c1.274-0.636,0.182-1.028,0.746-1.761c0.71-0.922,1.197-1.083,1.736-2.355
				c0.06-0.148,0.214-0.405,0.436-0.761c-0.618,3.526-1.439,7.661-1.441,9.888C19.789,92.639,18.035,91.708,18.683,90.555z"/>
		</g>
		<g>
			<path fill="#D91C5C" d="M23.288,18.161c1.885-0.221,3.435-0.014,4.269,1.765c4.262,9.087,7.118,5.14,7.796,6.385
				c1.018-2.6-0.36-4.347-0.36-4.347s-0.774-0.669-1.683-1.425c-0.809-0.673-0.002-0.973,0.152-1.489
				c0.058-0.193-0.199-0.198-0.056-0.471c0.159-0.304,0.572-0.032,0.47-0.184c-0.473-0.705,0.512-0.429,0.323-0.876
				c-0.187-0.452-0.089-0.567,0.081-0.599c0.41-0.078,0.869-0.134,1.507-0.47c0.468-0.245,0.729-0.84,1.069-1.218
				c-0.228-0.051-0.419-0.189-0.56-0.474c1.406-0.424,2.298-2.324,3.92-0.941c0.471,0.406,0.756,0.618,1.227,0.77
				c0.277,0.038,1.642-1.664,4.536,0.895c1.586,1.392,1.153,3.517,0.797,4.384c-0.655,1.6-1.982,3.089-3.619,3.707
				c-1.47,0.548-3.64-0.014-3.748-0.037c-0.688,0.411-0.595,1.982-0.025,2.923c0.436,1.286,2.677,1.208,2.98,2.798
				c0.553,2.895-0.516,6.573-0.11,9.497c0.401,1.41,4.877,10.912,4.978,11.166c0.019,0.041,0.148-1.393,0.088-1.443
				c-0.032-0.033-0.125-0.055-0.144-0.102c-0.041-0.115,0.111-0.291,0.185-0.355c-0.046-0.106-0.189-0.185-0.055-0.31
				c0.074-0.068,0.185-0.06,0.268-0.087c0.272-0.097-0.268-0.24-0.138-0.461c0.064-0.129,0.35-0.056,0.47-0.07
				c0.01-0.128,0.037-0.346,0.144-0.442c0.128-0.121,0.354-0.079,0.423,0.074c0.069-0.148,0.134-0.512,0.369-0.305
				c0.125,0.106,0.115,0.313,0.115,0.475c0-0.009,0-0.014,0-0.014c0.106-0.028,0.323-0.032,0.397,0.019
				c0.093,0.065,0.138,0.272,0,0.314c0.129-0.01,0.268-0.074,0.392,0.004c0.101,0.06,0.11,0.17,0.032,0.24
				c0.217,0.092,0.157-0.36,0.17-0.471c0.078-0.009,0.203,0.028,0.282-0.004c0.119-0.051,0.124-0.212,0.23-0.272
				c0.184-0.11,0.369,0.079,0.365,0.272c0.134-0.018,0.226-0.179,0.372-0.087c0.13,0.069,0.093,0.217,0.111,0.341
				c0.147,0.018,0.368-0.065,0.457,0.087c0.032,0.064,0.041,0.212,0.013,0.285c-0.027,0.111-0.073,0.042-0.133,0.106
				c0.133,0,0.263,0.116,0.226,0.258c-0.046,0.152-0.203,0.162-0.337,0.17c0.042,0.193-0.032,0.097-0.143,0.203
				c-0.073,0.069,0.009,0.129,0,0.217c0.226,0.046,0.162-0.157,0.305-0.249c0.152-0.097,0.263,0.009,0.286,0.162
				c0.073-0.088,0.146-0.152,0.257-0.088c0.148,0.083,0.083,0.254,0.157,0.346c0.064-0.055,0.286-0.041,0.351,0.023
				c0.102,0.092,0.042,0.276,0.055,0.401c0.176-0.023,0.208,0.184,0.171,0.313c-0.041,0.148-0.171,0.125-0.272,0.203
				c0.111,0.014,0.079,0.189,0.065,0.276c-0.083,0.018-0.093,0.11-0.185,0.11c-0.037,0-0.078-0.064-0.147-0.051
				c-0.12,0.024-0.144,0.162-0.073,0.254c0.077,0.102,0.229,0.064,0.331,0.148c0.056,0.046,0.088,0.171,0.019,0.212
				c0.156-0.046,0.263-0.032,0.346,0.124c0.061,0.115,0.166,0.337,0.005,0.425c0.217-0.024,0.351,0.128,0.332,0.336
				c-0.009,0.124-0.185,0.23-0.31,0.212c0.015,0.042,0.019,0.089-0.004,0.124c-0.046,0.075-0.235,0.111-0.313,0.115
				c-0.046,0.011-0.11-0.022-0.138-0.022c-0.047,0.005-0.089,0.022-0.14,0.022c-0.092,0.011-0.143-0.049-0.221-0.049
				c-0.028,0.215,0.166,0.252,0.305,0.391c0.151,0.138,0.166,0.337,0.138,0.531c-0.019,0.009-0.051,0.018-0.082,0.022
				c0.119,0.028,0.211,0.092,0.267,0.234c0.083,0.227-0.156,0.227-0.305,0.268c0.083,0.317-0.11,0.406-0.382,0.415
				c-0.189,0.009-0.498,0.245-0.623-0.046c-0.083,0.088-0.105,0.123-0.23,0.13c-0.119,0.009-0.24-0.089-0.23-0.228
				c-0.102,0.033-0.147,0.07-0.267,0.051c-0.028-0.082-0.056-0.192-0.098-0.271c-0.078-0.014-0.207,0.028-0.281-0.01
				c-0.087-0.046-1.665-0.849-2.006-1.061c0,0.07-0.004,0.139-0.013,0.203c-0.087-0.018-0.221,0.047-0.309,0.033
				c0.013,0.082-0.051,0.221-0.033,0.303C48,52.859,47.82,52.933,47.7,52.91c0.014,0.088-0.051,0.226-0.032,0.31
				c-0.083-0.014-0.222,0.051-0.305,0.036c-0.013,0.061-0.143,0.069-0.157,0.134c-0.272,0.106-0.4,0.089-0.812-0.097
				c-0.304,0.194-1.092,1.171-1.401,1.354c-0.004-0.013-0.009-0.031-0.018-0.051c-0.037,0.066-0.097,0.098-0.203,0.075
				c-0.027-0.11,0.038-0.226,0.115-0.318c-0.009-0.023-0.014-0.046-0.022-0.064c-0.055,0.036-0.111,0.069-0.176,0.041
				c-0.023-0.078,0.046-0.157,0.115-0.222c-0.009-0.022-0.018-0.051-0.027-0.073c-0.064,0.019-0.124,0.06-0.175,0.073
				c-0.088,0.033-0.245,0.033-0.31,0.084c-0.027-0.11,0.25-0.254,0.42-0.336c-0.004-0.016-0.009-0.024-0.014-0.038
				c-0.055,0.019-0.115,0.051-0.162,0.061c-0.087,0.021-0.175,0.041-0.271,0.028c-0.028-0.093,0.208-0.162,0.383-0.223
				c-0.005-0.019-0.014-0.041-0.023-0.064c-0.028,0.004-0.055,0.009-0.083,0.009c-0.093,0-0.18,0.046-0.277,0.024
				c-0.014-0.029-0.014-0.075,0-0.103c0.074-0.023,0.147-0.063,0.222-0.092c0.018-0.005,0.045-0.01,0.064-0.014
				c-0.009-0.018-0.015-0.037-0.019-0.051c-0.157,0.022-0.368,0.051-0.355-0.069c0.028,0,0.051-0.004,0.079-0.009
				c-0.083,0.005-0.138-0.02-0.102-0.105c0.102-0.024,0.193-0.02,0.276-0.02c-0.018-0.031-0.037-0.069-0.055-0.102
				c0.581-0.272,1.582-0.323,1.835-1.068c0.147-0.439-0.563-0.212-0.507-2.093c-2.969-3.702-7.862-10.82-6.505-16.379
				c-2.264,3.96-3.287,6.555-1.862,8.625c1.328,1.927,3.43,3.245,4.176,5.615c0.743,2.337-0.852,6.5-0.894,7.021
				c-0.475,6.271,2.54,12.144,5.444,17.628c6.597,12.472,15.489,18.261,20.51,21.746c-0.815,0.608-5.195-0.72-6.108-0.678
				c-1.807,0.088-1.696,0.891-3.619,1.019c-1.516,0.102-2.093-1.328-3.586-1.355c-2.494-0.046-3.752,1.844-5.804,2.034
				c-1.596,0.15-3.495-0.066-4.887-0.908c-1.954-1.186-3.697,1.004-5.67,0.604c-1.519-0.305-2.764-1.665-4.262-1.844
				c-1.139-0.14-4.433,1.765-5.211-0.222c-0.466-1.189,4.604-9.146,5.054-10.999c1.353-5.588,0.646-10.28,0.593-15.975
				c-0.007-0.688-0.039-4.286-0.087-7.785c-0.046-0.775-0.056-1.411-0.025-1.821c-0.002-0.217-0.005-0.434-0.01-0.637
				c-0.504-3.199,0.003-6.343-0.309-9.533c-0.281-2.881-2.024-5.283-1.892-8.229c0.032-0.742,0.072-1.494,0.117-2.241
				c0.072-1.152-1.355-1.198-1.376-2.807c-0.025-1.115,2.083-3.125,2.328-3.48c-4.17-0.977-4.824-3.969-7-5.918
				c-0.833-0.747-1.376-1.356-1.642-1.886c-0.286,0.092-0.626,0.134-1.055,0.069c-0.183-0.185,0.463-0.682,0.905-1.079
				c0.048-0.18,0.138-0.364,0.275-0.54c-1.277-0.447-1.379,1.895-1.821,1.646C20.778,20.59,21.813,18.335,23.288,18.161z"/>
			<g>
				<path fill="#D91C5C" d="M44.515,14.772c1.627,0.069,2.453,1.775,2.95,3.094c0.646,1.709,1.032,3.522,1.466,5.296
					c0.761,3.075,1.577,7.491,4.573,9.248c1.369,0.792,2.955,0.646,4.135-0.424c1.093-0.991,1.877-2.84,1.015-4.223
					c-0.714-1.134-2.789-1.751-3.504-0.285c-0.29,0.599-0.429,1.659,0.102,2.175c0.364,0.36,1.72,0.129,1.259-0.396
					c0.341,0.461-0.613,0.599-0.876,0.507c-0.682-0.24-0.59-1.226-0.434-1.774c0.452-1.549,2.416-1.204,3.111-0.014
					c0.762,1.3-0.17,3.028-1.253,3.826c-1.323,0.977-2.918,0.609-4.052-0.465c-2.389-2.259-3.025-6.159-3.864-9.179
					c-0.433-1.576-0.852-3.176-1.54-4.661C47.032,16.243,46.091,14.721,44.515,14.772z"/>
				<path fill="#D91C5C" d="M40.181,19.792c1.152,2.688,0.958,5.74,2.204,8.4c1.23,2.641,3.816,4.066,5.559,6.292
					c0.747,0.95,1.374,2.186,1.24,3.426c-0.134,1.277-1.176,2.466-2.48,2.609c-1.342,0.152-2.457-1.217-2.319-2.512
					c0.185-1.627,3.31-0.576,1.899,0.682c1.365-1.046-0.839-2.25-1.797-1.396c-1.005,0.885-0.005,2.835,0.922,3.37
					c1.263,0.724,2.858,0.018,3.651-1.074c0.949-1.291,0.774-2.937,0.069-4.302c-1.434-2.775-4.542-4.149-6.1-6.836
					C41.481,25.771,41.629,22.508,40.181,19.792z"/>
				<path fill="#D91C5C" d="M41.804,18.506c1.899,0.968,3.651,2.277,4.85,4.066c1.226,1.834,1.751,4.01,1.917,6.19
					c0.18,2.089,1.042,4.112,1.895,6.007c0.927,2.056,2.006,4.08,3.37,5.882c1.291,1.706,2.872,3.259,5.163,3.103
					c2.231-0.152,3.753-2.083,3.743-4.26c-0.01-1.908-1.688-4.222-3.794-3.181c-0.871,0.438-1.733,1.416-1.378,2.452
					c0.146,0.429,0.563,0.974,1.005,1.135c0.502,0.184,0.839-0.434,0.986-0.807c-0.507,1.009-1.263,0.77-1.72-0.157
					c-0.479-0.977,0.327-1.918,1.171-2.333c1.932-0.954,3.365,1.263,3.297,2.983c-0.079,2.033-1.596,3.697-3.684,3.646
					c-2.126-0.051-3.531-1.756-4.67-3.365c-2.389-3.375-4.449-7.542-4.942-11.668C48.479,23.711,45.98,20.276,41.804,18.506z"/>
				<path fill="#D91C5C" d="M42.592,18.506c1.287,3.697,1.867,7.901,4.542,10.935c2.434,2.752,6.611,3.684,8.289,7.174
					c0.774,1.613,0.646,3.443-0.185,5.015c-0.812,1.553-2.425,2.706-4.186,1.927c-0.701-0.313-1.199-0.802-1.281-1.595
					c-0.102-0.904,0.35-2.02,1.217-2.406c0.737-0.337,1.65,0,1.853,0.811c0.176,0.714-0.322,1.992-1.198,1.328
					c0.71,0.618,1.323-0.226,1.374-0.926c0.06-0.991-0.775-1.706-1.743-1.554c-1.885,0.295-2.489,3.227-1.023,4.342
					c1.518,1.121,3.412,0.807,4.647-0.553c1.392-1.526,1.973-3.845,1.346-5.822c-1.29-4.076-5.8-5.043-8.538-7.791
					C44.8,26.477,44.127,22.157,42.592,18.506z"/>
			</g>
			<g>
				<path fill="#D91C5C" d="M40.181,57.097c0.701,3.402,3.983,9.432,5.071,10.897c1.89,2.545,4.361,6.298,7.799,6.749
					c1.567,0.208,2.975-0.539,3.642-1.987c0.628-1.342,0.637-3.352-0.695-4.282c-1.097-0.775-3.255-0.539-3.342,1.093
					c-0.037,0.658,0.249,1.695,0.939,1.963c0.471,0.189,1.628-0.548,0.996-0.852c0.503,0.29-0.327,0.792-0.604,0.807
					c-0.725,0.04-1.02-0.903-1.083-1.467c-0.189-1.607,1.756-2.047,2.857-1.221c1.208,0.902,1.014,2.862,0.327,4.015
					c-0.839,1.41-2.457,1.687-3.913,1.139c-3.075-1.152-5.173-4.504-7.118-6.966C44.049,65.707,40.527,56.939,40.181,57.097z"/>
				<path fill="#D91C5C" d="M36.228,68.33c-0.556,0.272,2.155,2.706,2.367,2.9c1.291,1.143,2.627,2.365,4.084,3.296
					c2.425,1.525,5.79,1.808,8.569,1.928c3.744,0.165,7.657-0.25,11.272,0.948c3.434,1.121,5.67,3.854,8.201,6.251
					c2.65,2.518,6.144,4.357,9.906,3.975c3.979-0.411,6.361-4.328,4.509-7.403c-1.379-2.292-5.352-2.767-6.496-0.322
					c-0.456,0.981-0.77,3.318,0.725,3.567c1.525,0.259,2.396-1.48,1.305-2.518c1.111,0.978,0.442,2.549-1.006,2.666
					c-1.811,0.133-1.746-2.352-1.378-3.527c0.932-2.982,5.407-3.038,7.266-0.103c1.756,2.785-0.046,6.897-3.531,7.944
					c-3.568,1.07-7.606-0.424-10.4-2.665c-2.996-2.396-5.145-5.721-8.842-7.145c-3.651-1.401-7.722-0.983-11.553-1.205
					c-2.853-0.17-6.145-0.557-8.63-2.106c-1.364-0.811-2.581-2.078-3.734-3.147C38.625,71.447,35.627,68.598,36.228,68.33z"/>
				<path fill="#D91C5C" d="M43.887,72.028c6.482-0.161,10.391,6.371,14.983,9.893c4.969,3.808,10.432,5.053,16.513,3.517
					c2.388-0.599,5.26-1.291,7.412,0.352c2.195,1.631,2.186,5.292-0.073,6.868c-2.226,1.563-5.521,1.545-7.279-0.69
					c-0.649-0.826-1.166-2.19-0.028-2.873c1.153-0.696,2.486,0.139,2.279,1.472c0.114-1.116-0.808-1.914-1.905-1.489
					c-1.493,0.565-0.659,2.221,0.135,3.01c1.912,1.908,5.738,1.618,7.306-0.646c1.162-1.678,0.72-4.168-0.99-5.292
					c-2.171-1.36-4.828-0.544-7.113,0.045c-6.076,1.554-11.732,0.02-16.601-3.826C53.983,78.781,50.323,72.18,43.887,72.028z"/>
				<path fill="#D91C5C" d="M44.565,76.44c3.2-2.665,8.663,6.075,10.368,7.863c0.877,0.917,2.057,1.522,3.145,2.144
					c2.249,1.282,4.711,2.463,7.339,2.582c2.397,0.106,4.748-0.663,6.188-2.655c1.354-1.872,2.064-4.79,0.616-6.804
					c-1.134-1.578-3.669-2.356-5.181-0.84c-0.737,0.734-0.701,2.167,0.193,2.771c0.802,0.559,2.84-0.036,1.991-1.212
					c0.987,1.216-1.23,1.903-2.093,1.373c-0.895-0.553-1.125-1.926-0.608-2.799c1.374-2.299,4.771-1.386,6.113,0.397
					c1.554,2.057,1.027,5.021-0.226,7.072c-1.297,2.102-3.439,3.185-5.86,3.355c-3.982,0.28-7.854-1.932-11.041-4.121
					c-1.978-1.379-3.328-3.895-4.854-5.729C49.475,78.422,46.736,74.845,44.565,76.44z"/>
			</g>
		</g>
	</g>
</g>
</svg>
